<mxfile host="app.diagrams.net" modified="2023-12-05T23:51:38.840Z" agent="Mozilla/5.0 (X11; Linux x86_64; rv:109.0) Gecko/20100101 Firefox/115.0" etag="cJeJQqPfSj17OKndpfoM" version="22.1.5" type="device">
  <diagram name="diagram" id="CQK-lgwkt1r2YOkCEma4">
    <mxGraphModel dx="926" dy="467" grid="1" gridSize="10" guides="1" tooltips="1" connect="1" arrows="1" fold="1" page="1" pageScale="1" pageWidth="850" pageHeight="1100" math="0" shadow="0">
      <root>
        <mxCell id="0" />
        <mxCell id="1" parent="0" />
        <mxCell id="4Pl_x_dU1OYKqT1XHJak-22" style="edgeStyle=orthogonalEdgeStyle;rounded=0;orthogonalLoop=1;jettySize=auto;html=1;exitX=1;exitY=0.5;exitDx=0;exitDy=0;entryX=0;entryY=0.5;entryDx=0;entryDy=0;" parent="1" source="4Pl_x_dU1OYKqT1XHJak-1" target="4Pl_x_dU1OYKqT1XHJak-18" edge="1">
          <mxGeometry relative="1" as="geometry" />
        </mxCell>
        <mxCell id="4Pl_x_dU1OYKqT1XHJak-1" value="vhost1:&lt;br&gt;patient&#39;s portal" style="rounded=0;whiteSpace=wrap;html=1;fillColor=#dae8fc;strokeColor=#6c8ebf;" parent="1" vertex="1">
          <mxGeometry x="624" y="50" width="115" height="50" as="geometry" />
        </mxCell>
        <mxCell id="4Pl_x_dU1OYKqT1XHJak-21" style="edgeStyle=orthogonalEdgeStyle;rounded=0;orthogonalLoop=1;jettySize=auto;html=1;exitX=1;exitY=0.5;exitDx=0;exitDy=0;entryX=0;entryY=0.5;entryDx=0;entryDy=0;" parent="1" source="4Pl_x_dU1OYKqT1XHJak-2" target="4Pl_x_dU1OYKqT1XHJak-19" edge="1">
          <mxGeometry relative="1" as="geometry" />
        </mxCell>
        <mxCell id="4Pl_x_dU1OYKqT1XHJak-2" value="vhost2:&lt;br&gt;doctor&#39;s portal" style="rounded=0;whiteSpace=wrap;html=1;fillColor=#f8cecc;strokeColor=#b85450;" parent="1" vertex="1">
          <mxGeometry x="669" y="128" width="115" height="50" as="geometry" />
        </mxCell>
        <mxCell id="4Pl_x_dU1OYKqT1XHJak-38" style="edgeStyle=orthogonalEdgeStyle;rounded=0;orthogonalLoop=1;jettySize=auto;html=1;exitX=1;exitY=0.5;exitDx=0;exitDy=0;entryX=0;entryY=0.5;entryDx=0;entryDy=0;" parent="1" source="4Pl_x_dU1OYKqT1XHJak-4" target="4Pl_x_dU1OYKqT1XHJak-36" edge="1">
          <mxGeometry relative="1" as="geometry">
            <Array as="points">
              <mxPoint x="860" y="225" />
              <mxPoint x="860" y="205" />
            </Array>
          </mxGeometry>
        </mxCell>
        <mxCell id="4Pl_x_dU1OYKqT1XHJak-4" value="vhost3:&lt;br&gt;administrator&#39;s portal" style="rounded=0;whiteSpace=wrap;html=1;fillColor=#e1d5e7;strokeColor=#9673a6;" parent="1" vertex="1">
          <mxGeometry x="694" y="198" width="115" height="50" as="geometry" />
        </mxCell>
        <mxCell id="4Pl_x_dU1OYKqT1XHJak-6" value="User" style="shape=umlActor;verticalLabelPosition=bottom;verticalAlign=top;html=1;" parent="1" vertex="1">
          <mxGeometry x="180" y="278" width="30" height="60" as="geometry" />
        </mxCell>
        <mxCell id="4Pl_x_dU1OYKqT1XHJak-11" value="proxy" style="rounded=0;whiteSpace=wrap;html=1;" parent="1" vertex="1">
          <mxGeometry x="300" y="283" width="115" height="50" as="geometry" />
        </mxCell>
        <mxCell id="4Pl_x_dU1OYKqT1XHJak-14" value="" style="endArrow=none;dashed=1;html=1;rounded=0;" parent="1" edge="1">
          <mxGeometry width="50" height="50" relative="1" as="geometry">
            <mxPoint x="240" y="564" as="sourcePoint" />
            <mxPoint x="240" as="targetPoint" />
          </mxGeometry>
        </mxCell>
        <mxCell id="4Pl_x_dU1OYKqT1XHJak-15" value="" style="endArrow=none;dashed=1;html=1;rounded=0;" parent="1" edge="1">
          <mxGeometry width="50" height="50" relative="1" as="geometry">
            <mxPoint x="440" y="563" as="sourcePoint" />
            <mxPoint x="440" as="targetPoint" />
          </mxGeometry>
        </mxCell>
        <mxCell id="4Pl_x_dU1OYKqT1XHJak-17" value="Monitoring" style="rounded=0;whiteSpace=wrap;html=1;fillColor=#d5e8d4;strokeColor=#82b366;" parent="1" vertex="1">
          <mxGeometry x="570" y="278" width="120" height="50" as="geometry" />
        </mxCell>
        <mxCell id="4Pl_x_dU1OYKqT1XHJak-23" style="edgeStyle=orthogonalEdgeStyle;rounded=0;orthogonalLoop=1;jettySize=auto;html=1;exitX=0;exitY=0.5;exitDx=0;exitDy=0;entryX=1;entryY=0.5;entryDx=0;entryDy=0;" parent="1" source="4Pl_x_dU1OYKqT1XHJak-18" target="4Pl_x_dU1OYKqT1XHJak-1" edge="1">
          <mxGeometry relative="1" as="geometry" />
        </mxCell>
        <mxCell id="4Pl_x_dU1OYKqT1XHJak-18" value="App Logic" style="rounded=0;whiteSpace=wrap;html=1;fillColor=#dae8fc;strokeColor=#6c8ebf;" parent="1" vertex="1">
          <mxGeometry x="859" y="20" width="115" height="50" as="geometry" />
        </mxCell>
        <mxCell id="4Pl_x_dU1OYKqT1XHJak-20" style="edgeStyle=orthogonalEdgeStyle;rounded=0;orthogonalLoop=1;jettySize=auto;html=1;exitX=0;exitY=0.5;exitDx=0;exitDy=0;entryX=1;entryY=0.5;entryDx=0;entryDy=0;" parent="1" source="4Pl_x_dU1OYKqT1XHJak-19" target="4Pl_x_dU1OYKqT1XHJak-2" edge="1">
          <mxGeometry relative="1" as="geometry" />
        </mxCell>
        <mxCell id="4Pl_x_dU1OYKqT1XHJak-39" style="edgeStyle=orthogonalEdgeStyle;rounded=0;orthogonalLoop=1;jettySize=auto;html=1;exitX=0;exitY=0.5;exitDx=0;exitDy=0;entryX=1;entryY=0.5;entryDx=0;entryDy=0;" parent="1" source="4Pl_x_dU1OYKqT1XHJak-36" target="4Pl_x_dU1OYKqT1XHJak-4" edge="1">
          <mxGeometry relative="1" as="geometry">
            <Array as="points">
              <mxPoint x="860" y="205" />
              <mxPoint x="860" y="225" />
            </Array>
          </mxGeometry>
        </mxCell>
        <mxCell id="4Pl_x_dU1OYKqT1XHJak-36" value="App Logic" style="rounded=0;whiteSpace=wrap;html=1;fillColor=#e1d5e7;strokeColor=#9673a6;" parent="1" vertex="1">
          <mxGeometry x="920" y="180" width="115" height="50" as="geometry" />
        </mxCell>
        <mxCell id="4Pl_x_dU1OYKqT1XHJak-49" value="database" style="rounded=0;whiteSpace=wrap;html=1;fillColor=#bac8d3;strokeColor=#23445d;" parent="1" vertex="1">
          <mxGeometry x="859" y="360" width="120" height="50" as="geometry" />
        </mxCell>
        <mxCell id="4Pl_x_dU1OYKqT1XHJak-66" value="DMZ" style="text;html=1;strokeColor=none;fillColor=none;align=center;verticalAlign=middle;whiteSpace=wrap;rounded=0;" parent="1" vertex="1">
          <mxGeometry x="327.5" y="10" width="60" height="30" as="geometry" />
        </mxCell>
        <mxCell id="4Pl_x_dU1OYKqT1XHJak-67" value="Inner Infrastructure" style="text;html=1;strokeColor=none;fillColor=none;align=center;verticalAlign=middle;whiteSpace=wrap;rounded=0;" parent="1" vertex="1">
          <mxGeometry x="500" y="15" width="60" height="30" as="geometry" />
        </mxCell>
        <mxCell id="0Ubjl8j9WLnlHk5hPcO3-2" value="" style="endArrow=classic;html=1;rounded=0;exitX=0.5;exitY=0.5;exitDx=0;exitDy=0;exitPerimeter=0;entryX=0;entryY=0.5;entryDx=0;entryDy=0;" parent="1" source="4Pl_x_dU1OYKqT1XHJak-6" target="4Pl_x_dU1OYKqT1XHJak-11" edge="1">
          <mxGeometry width="50" height="50" relative="1" as="geometry">
            <mxPoint x="20" y="310" as="sourcePoint" />
            <mxPoint x="70" y="260" as="targetPoint" />
          </mxGeometry>
        </mxCell>
        <mxCell id="4Pl_x_dU1OYKqT1XHJak-19" value="App Logic" style="rounded=0;whiteSpace=wrap;html=1;fillColor=#f8cecc;strokeColor=#b85450;" parent="1" vertex="1">
          <mxGeometry x="890" y="100" width="115" height="50" as="geometry" />
        </mxCell>
        <mxCell id="hL-Z4IJMGr8m_Njhi-RC-9" value="startup" style="rounded=0;whiteSpace=wrap;html=1;fillColor=#ffe6cc;strokeColor=#d79b00;" vertex="1" parent="1">
          <mxGeometry x="460" y="360" width="120" height="50" as="geometry" />
        </mxCell>
        <mxCell id="hL-Z4IJMGr8m_Njhi-RC-10" value="" style="endArrow=classic;html=1;rounded=0;entryX=0.25;entryY=0;entryDx=0;entryDy=0;exitX=0;exitY=0.5;exitDx=0;exitDy=0;" edge="1" parent="1" source="4Pl_x_dU1OYKqT1XHJak-1" target="hL-Z4IJMGr8m_Njhi-RC-9">
          <mxGeometry width="50" height="50" relative="1" as="geometry">
            <mxPoint x="380" y="90" as="sourcePoint" />
            <mxPoint x="810" y="210" as="targetPoint" />
            <Array as="points">
              <mxPoint x="490" y="75" />
            </Array>
          </mxGeometry>
        </mxCell>
        <mxCell id="hL-Z4IJMGr8m_Njhi-RC-11" value="" style="endArrow=classic;html=1;rounded=0;entryX=0.5;entryY=0;entryDx=0;entryDy=0;exitX=0;exitY=0.5;exitDx=0;exitDy=0;" edge="1" parent="1" source="4Pl_x_dU1OYKqT1XHJak-2" target="hL-Z4IJMGr8m_Njhi-RC-9">
          <mxGeometry width="50" height="50" relative="1" as="geometry">
            <mxPoint x="390" y="170" as="sourcePoint" />
            <mxPoint x="810" y="210" as="targetPoint" />
            <Array as="points">
              <mxPoint x="520" y="153" />
            </Array>
          </mxGeometry>
        </mxCell>
        <mxCell id="hL-Z4IJMGr8m_Njhi-RC-12" value="" style="endArrow=classic;html=1;rounded=0;entryX=0.75;entryY=0;entryDx=0;entryDy=0;exitX=0;exitY=0.5;exitDx=0;exitDy=0;" edge="1" parent="1" source="4Pl_x_dU1OYKqT1XHJak-4" target="hL-Z4IJMGr8m_Njhi-RC-9">
          <mxGeometry width="50" height="50" relative="1" as="geometry">
            <mxPoint x="390" y="190" as="sourcePoint" />
            <mxPoint x="810" y="210" as="targetPoint" />
            <Array as="points">
              <mxPoint x="550" y="223" />
            </Array>
          </mxGeometry>
        </mxCell>
        <mxCell id="hL-Z4IJMGr8m_Njhi-RC-14" value="Storage" style="rounded=0;whiteSpace=wrap;html=1;fillColor=#dae8fc;strokeColor=#6c8ebf;" vertex="1" parent="1">
          <mxGeometry x="1072.5" y="20" width="115" height="50" as="geometry" />
        </mxCell>
        <mxCell id="hL-Z4IJMGr8m_Njhi-RC-16" value="Storage" style="rounded=0;whiteSpace=wrap;html=1;fillColor=#f8cecc;strokeColor=#b85450;" vertex="1" parent="1">
          <mxGeometry x="1072.5" y="100" width="115" height="50" as="geometry" />
        </mxCell>
        <mxCell id="hL-Z4IJMGr8m_Njhi-RC-17" value="Storage" style="rounded=0;whiteSpace=wrap;html=1;fillColor=#e1d5e7;strokeColor=#9673a6;" vertex="1" parent="1">
          <mxGeometry x="1072.5" y="180" width="115" height="50" as="geometry" />
        </mxCell>
        <mxCell id="hL-Z4IJMGr8m_Njhi-RC-18" value="" style="endArrow=classic;html=1;rounded=0;entryX=0.25;entryY=1;entryDx=0;entryDy=0;exitX=0.25;exitY=0;exitDx=0;exitDy=0;" edge="1" parent="1" source="4Pl_x_dU1OYKqT1XHJak-49" target="4Pl_x_dU1OYKqT1XHJak-18">
          <mxGeometry width="50" height="50" relative="1" as="geometry">
            <mxPoint x="810" y="310" as="sourcePoint" />
            <mxPoint x="1040" y="210" as="targetPoint" />
          </mxGeometry>
        </mxCell>
        <mxCell id="hL-Z4IJMGr8m_Njhi-RC-19" value="" style="endArrow=classic;html=1;rounded=0;exitX=0.5;exitY=0;exitDx=0;exitDy=0;entryX=0.25;entryY=1;entryDx=0;entryDy=0;" edge="1" parent="1" source="4Pl_x_dU1OYKqT1XHJak-49" target="4Pl_x_dU1OYKqT1XHJak-19">
          <mxGeometry width="50" height="50" relative="1" as="geometry">
            <mxPoint x="990" y="260" as="sourcePoint" />
            <mxPoint x="940" y="170" as="targetPoint" />
          </mxGeometry>
        </mxCell>
        <mxCell id="hL-Z4IJMGr8m_Njhi-RC-20" value="" style="endArrow=classic;html=1;rounded=0;exitX=0.75;exitY=0;exitDx=0;exitDy=0;entryX=0.25;entryY=1;entryDx=0;entryDy=0;" edge="1" parent="1" source="4Pl_x_dU1OYKqT1XHJak-49" target="4Pl_x_dU1OYKqT1XHJak-36">
          <mxGeometry width="50" height="50" relative="1" as="geometry">
            <mxPoint x="990" y="260" as="sourcePoint" />
            <mxPoint x="990" y="290" as="targetPoint" />
          </mxGeometry>
        </mxCell>
        <mxCell id="hL-Z4IJMGr8m_Njhi-RC-21" value="Storage" style="rounded=0;whiteSpace=wrap;html=1;fillColor=#bac8d3;strokeColor=#23445d;" vertex="1" parent="1">
          <mxGeometry x="1072.5" y="250" width="120" height="50" as="geometry" />
        </mxCell>
        <mxCell id="hL-Z4IJMGr8m_Njhi-RC-22" value="" style="endArrow=classic;html=1;rounded=0;entryX=1;entryY=0.5;entryDx=0;entryDy=0;exitX=0;exitY=0.5;exitDx=0;exitDy=0;" edge="1" parent="1" source="hL-Z4IJMGr8m_Njhi-RC-14" target="4Pl_x_dU1OYKqT1XHJak-18">
          <mxGeometry width="50" height="50" relative="1" as="geometry">
            <mxPoint x="1040" y="80" as="sourcePoint" />
            <mxPoint x="1040" y="210" as="targetPoint" />
          </mxGeometry>
        </mxCell>
        <mxCell id="hL-Z4IJMGr8m_Njhi-RC-23" value="" style="endArrow=classic;html=1;rounded=0;entryX=1;entryY=0.5;entryDx=0;entryDy=0;exitX=0;exitY=0.5;exitDx=0;exitDy=0;" edge="1" parent="1" source="hL-Z4IJMGr8m_Njhi-RC-16" target="4Pl_x_dU1OYKqT1XHJak-19">
          <mxGeometry width="50" height="50" relative="1" as="geometry">
            <mxPoint x="1040" y="100" as="sourcePoint" />
            <mxPoint x="1040" y="210" as="targetPoint" />
          </mxGeometry>
        </mxCell>
        <mxCell id="hL-Z4IJMGr8m_Njhi-RC-24" value="" style="endArrow=classic;html=1;rounded=0;exitX=0;exitY=0.5;exitDx=0;exitDy=0;entryX=1;entryY=0.5;entryDx=0;entryDy=0;" edge="1" parent="1" source="hL-Z4IJMGr8m_Njhi-RC-17" target="4Pl_x_dU1OYKqT1XHJak-36">
          <mxGeometry width="50" height="50" relative="1" as="geometry">
            <mxPoint x="990" y="260" as="sourcePoint" />
            <mxPoint x="1040" y="210" as="targetPoint" />
          </mxGeometry>
        </mxCell>
        <mxCell id="hL-Z4IJMGr8m_Njhi-RC-25" value="" style="endArrow=classic;html=1;rounded=0;entryX=1;entryY=0.5;entryDx=0;entryDy=0;exitX=0;exitY=0.5;exitDx=0;exitDy=0;" edge="1" parent="1" source="hL-Z4IJMGr8m_Njhi-RC-21" target="4Pl_x_dU1OYKqT1XHJak-49">
          <mxGeometry width="50" height="50" relative="1" as="geometry">
            <mxPoint x="990" y="290" as="sourcePoint" />
            <mxPoint x="1040" y="210" as="targetPoint" />
            <Array as="points">
              <mxPoint x="1020" y="275" />
              <mxPoint x="1020" y="385" />
            </Array>
          </mxGeometry>
        </mxCell>
        <mxCell id="hL-Z4IJMGr8m_Njhi-RC-26" value="backup" style="rounded=0;whiteSpace=wrap;html=1;fillColor=#f5f5f5;strokeColor=#666666;fontColor=#333333;" vertex="1" parent="1">
          <mxGeometry x="859" y="430" width="120" height="50" as="geometry" />
        </mxCell>
        <mxCell id="hL-Z4IJMGr8m_Njhi-RC-27" value="" style="endArrow=classic;html=1;rounded=0;entryX=1;entryY=0.75;entryDx=0;entryDy=0;exitX=1;exitY=0.5;exitDx=0;exitDy=0;" edge="1" parent="1" source="hL-Z4IJMGr8m_Njhi-RC-17" target="hL-Z4IJMGr8m_Njhi-RC-26">
          <mxGeometry width="50" height="50" relative="1" as="geometry">
            <mxPoint x="1010" y="480" as="sourcePoint" />
            <mxPoint x="1010" y="430" as="targetPoint" />
            <Array as="points">
              <mxPoint x="1280" y="205" />
              <mxPoint x="1280" y="468" />
            </Array>
          </mxGeometry>
        </mxCell>
        <mxCell id="hL-Z4IJMGr8m_Njhi-RC-28" value="" style="endArrow=classic;html=1;rounded=0;entryX=1;entryY=0.5;entryDx=0;entryDy=0;exitX=1;exitY=0.5;exitDx=0;exitDy=0;" edge="1" parent="1" source="hL-Z4IJMGr8m_Njhi-RC-16" target="hL-Z4IJMGr8m_Njhi-RC-26">
          <mxGeometry width="50" height="50" relative="1" as="geometry">
            <mxPoint x="1210" y="160" as="sourcePoint" />
            <mxPoint x="1310" y="320" as="targetPoint" />
            <Array as="points">
              <mxPoint x="1260" y="125" />
              <mxPoint x="1260" y="455" />
            </Array>
          </mxGeometry>
        </mxCell>
        <mxCell id="hL-Z4IJMGr8m_Njhi-RC-29" value="" style="endArrow=classic;html=1;rounded=0;entryX=1;entryY=0.25;entryDx=0;entryDy=0;exitX=1;exitY=0.5;exitDx=0;exitDy=0;" edge="1" parent="1" source="hL-Z4IJMGr8m_Njhi-RC-14" target="hL-Z4IJMGr8m_Njhi-RC-26">
          <mxGeometry width="50" height="50" relative="1" as="geometry">
            <mxPoint x="1270" y="100" as="sourcePoint" />
            <mxPoint x="1010" y="431.6666666666667" as="targetPoint" />
            <Array as="points">
              <mxPoint x="1240" y="45" />
              <mxPoint x="1240" y="443" />
            </Array>
          </mxGeometry>
        </mxCell>
        <mxCell id="hL-Z4IJMGr8m_Njhi-RC-30" value="" style="endArrow=classic;html=1;rounded=0;entryX=0.75;entryY=1;entryDx=0;entryDy=0;exitX=1;exitY=0.5;exitDx=0;exitDy=0;" edge="1" parent="1" source="hL-Z4IJMGr8m_Njhi-RC-21" target="hL-Z4IJMGr8m_Njhi-RC-26">
          <mxGeometry width="50" height="50" relative="1" as="geometry">
            <mxPoint x="1210" y="550" as="sourcePoint" />
            <mxPoint x="1310" y="160" as="targetPoint" />
            <Array as="points">
              <mxPoint x="1220" y="275" />
              <mxPoint x="1220" y="500" />
              <mxPoint x="949" y="500" />
            </Array>
          </mxGeometry>
        </mxCell>
        <mxCell id="hL-Z4IJMGr8m_Njhi-RC-31" value="" style="endArrow=classic;html=1;rounded=0;exitX=0.5;exitY=1;exitDx=0;exitDy=0;entryX=0;entryY=0.5;entryDx=0;entryDy=0;" edge="1" parent="1" source="hL-Z4IJMGr8m_Njhi-RC-9" target="hL-Z4IJMGr8m_Njhi-RC-26">
          <mxGeometry width="50" height="50" relative="1" as="geometry">
            <mxPoint x="610" y="390" as="sourcePoint" />
            <mxPoint x="800" y="490" as="targetPoint" />
            <Array as="points">
              <mxPoint x="520" y="455" />
            </Array>
          </mxGeometry>
        </mxCell>
        <mxCell id="hL-Z4IJMGr8m_Njhi-RC-32" value="" style="endArrow=classic;startArrow=classic;html=1;rounded=0;exitX=1;exitY=0.5;exitDx=0;exitDy=0;entryX=0;entryY=0.5;entryDx=0;entryDy=0;" edge="1" parent="1" source="4Pl_x_dU1OYKqT1XHJak-17" target="4Pl_x_dU1OYKqT1XHJak-49">
          <mxGeometry width="50" height="50" relative="1" as="geometry">
            <mxPoint x="760" y="320" as="sourcePoint" />
            <mxPoint x="850" y="390" as="targetPoint" />
            <Array as="points">
              <mxPoint x="760" y="303" />
              <mxPoint x="760" y="385" />
            </Array>
          </mxGeometry>
        </mxCell>
        <mxCell id="hL-Z4IJMGr8m_Njhi-RC-33" value="" style="endArrow=classic;startArrow=classic;html=1;rounded=0;exitX=0.25;exitY=1;exitDx=0;exitDy=0;entryX=1;entryY=0.5;entryDx=0;entryDy=0;" edge="1" parent="1" source="4Pl_x_dU1OYKqT1XHJak-17" target="hL-Z4IJMGr8m_Njhi-RC-9">
          <mxGeometry width="50" height="50" relative="1" as="geometry">
            <mxPoint x="760" y="320" as="sourcePoint" />
            <mxPoint x="810" y="270" as="targetPoint" />
            <Array as="points">
              <mxPoint x="600" y="385" />
            </Array>
          </mxGeometry>
        </mxCell>
        <mxCell id="hL-Z4IJMGr8m_Njhi-RC-34" value="" style="endArrow=classic;startArrow=classic;html=1;rounded=0;exitX=1;exitY=0.5;exitDx=0;exitDy=0;entryX=0;entryY=0.5;entryDx=0;entryDy=0;" edge="1" parent="1" source="4Pl_x_dU1OYKqT1XHJak-11" target="4Pl_x_dU1OYKqT1XHJak-17">
          <mxGeometry width="50" height="50" relative="1" as="geometry">
            <mxPoint x="760" y="320" as="sourcePoint" />
            <mxPoint x="810" y="270" as="targetPoint" />
            <Array as="points">
              <mxPoint x="480" y="308" />
              <mxPoint x="480" y="303" />
            </Array>
          </mxGeometry>
        </mxCell>
        <mxCell id="hL-Z4IJMGr8m_Njhi-RC-35" value="" style="endArrow=classic;startArrow=classic;html=1;rounded=0;exitX=0.25;exitY=0;exitDx=0;exitDy=0;entryX=0;entryY=0.75;entryDx=0;entryDy=0;" edge="1" parent="1" source="4Pl_x_dU1OYKqT1XHJak-17" target="4Pl_x_dU1OYKqT1XHJak-1">
          <mxGeometry width="50" height="50" relative="1" as="geometry">
            <mxPoint x="680" y="340" as="sourcePoint" />
            <mxPoint x="730" y="290" as="targetPoint" />
            <Array as="points">
              <mxPoint x="600" y="88" />
            </Array>
          </mxGeometry>
        </mxCell>
        <mxCell id="hL-Z4IJMGr8m_Njhi-RC-36" value="" style="endArrow=classic;startArrow=classic;html=1;rounded=0;exitX=0.5;exitY=0;exitDx=0;exitDy=0;entryX=0;entryY=0.25;entryDx=0;entryDy=0;" edge="1" parent="1" source="4Pl_x_dU1OYKqT1XHJak-17" target="4Pl_x_dU1OYKqT1XHJak-2">
          <mxGeometry width="50" height="50" relative="1" as="geometry">
            <mxPoint x="680" y="340" as="sourcePoint" />
            <mxPoint x="730" y="290" as="targetPoint" />
            <Array as="points">
              <mxPoint x="630" y="140" />
            </Array>
          </mxGeometry>
        </mxCell>
        <mxCell id="hL-Z4IJMGr8m_Njhi-RC-37" value="" style="endArrow=classic;startArrow=classic;html=1;rounded=0;entryX=0;entryY=0.25;entryDx=0;entryDy=0;exitX=0.75;exitY=0;exitDx=0;exitDy=0;" edge="1" parent="1" source="4Pl_x_dU1OYKqT1XHJak-17" target="4Pl_x_dU1OYKqT1XHJak-4">
          <mxGeometry width="50" height="50" relative="1" as="geometry">
            <mxPoint x="680" y="340" as="sourcePoint" />
            <mxPoint x="730" y="290" as="targetPoint" />
            <Array as="points">
              <mxPoint x="660" y="210" />
            </Array>
          </mxGeometry>
        </mxCell>
        <mxCell id="hL-Z4IJMGr8m_Njhi-RC-38" value="" style="endArrow=classic;startArrow=classic;html=1;rounded=0;exitX=0.75;exitY=1;exitDx=0;exitDy=0;entryX=0;entryY=0.25;entryDx=0;entryDy=0;" edge="1" parent="1" source="4Pl_x_dU1OYKqT1XHJak-17" target="hL-Z4IJMGr8m_Njhi-RC-26">
          <mxGeometry width="50" height="50" relative="1" as="geometry">
            <mxPoint x="680" y="340" as="sourcePoint" />
            <mxPoint x="730" y="290" as="targetPoint" />
            <Array as="points">
              <mxPoint x="660" y="443" />
            </Array>
          </mxGeometry>
        </mxCell>
        <mxCell id="hL-Z4IJMGr8m_Njhi-RC-39" value="Storage" style="rounded=0;whiteSpace=wrap;html=1;fillColor=#f5f5f5;strokeColor=#666666;fontColor=#333333;" vertex="1" parent="1">
          <mxGeometry x="720" y="500" width="120" height="50" as="geometry" />
        </mxCell>
        <mxCell id="hL-Z4IJMGr8m_Njhi-RC-40" value="" style="endArrow=classic;html=1;rounded=0;entryX=0.25;entryY=1;entryDx=0;entryDy=0;exitX=1;exitY=0.5;exitDx=0;exitDy=0;" edge="1" parent="1" source="hL-Z4IJMGr8m_Njhi-RC-39" target="hL-Z4IJMGr8m_Njhi-RC-26">
          <mxGeometry width="50" height="50" relative="1" as="geometry">
            <mxPoint x="900" y="360" as="sourcePoint" />
            <mxPoint x="950" y="310" as="targetPoint" />
            <Array as="points">
              <mxPoint x="890" y="525" />
            </Array>
          </mxGeometry>
        </mxCell>
      </root>
    </mxGraphModel>
  </diagram>
</mxfile>
